# xmcd CD database file
#
# Track frame offsets:
#	150
#	16908
#	34968
#	53443
#	70799
#	89052
#	107470
#	123885
#	142782
#	158376
#	173960
#	191647
#	209340
#	231071
#	250058
#	264801
#	284816
#	300725
#
# Disc length: 4196 seconds
#
# Revision: 2
# Processed by: cddbd v1.5.2PL0 Copyright (c) Steve Scherf et al.
# Submitted via: CDex 1.51
#
DISCID=ec106212
DTITLE=Various Artist - MRH-114
DYEAR=1900
DGENRE=Blues
TTITLE0=Shakira Ft Rihanna - Can't Remember You 
TTITLE1=Bruno Mars - Young Girls
TTITLE2=Lily Allen - Air Balloon
TTITLE3=Tinie Tempah Ft Labrinth - Lover Not A Fighter
TTITLE4=Katy B - Crying For No Reason
TTITLE5=Neon Jungle - Braveheart
TTITLE6=Britney Spears and Will.i.am - It Shoud Be Easy
TTITLE7=Onerepublic - If I Lose Myself
TTITLE8=Saturdays The - Not Giving Up
TTITLE9=Vamps The - Wild Heart
TTITLE10=Zedd Ft Hayley Williams - Stay The Night
TTITLE11=Ellie Gouldling - Goodness Gracious
TTITLE12=John Legend - All Of Me
TTITLE13=Aloe Blacc - The Man
TTITLE14=DJ Fresh Vs Jay Fay Ft Ms Dynamite - Dibby Dibby Sound
TTITLE15=Busta Rhymes Ft Kanye West  Lil Wayne and Q Tip - Thank You
TTITLE16=Gorgon City Ft Mnek - Ready For Love
TTITLE17=Half Moon Run - Full Circle
EXTD=
EXTT0=
EXTT1=
EXTT2=
EXTT3=
EXTT4=
EXTT5=
EXTT6=
EXTT7=
EXTT8=
EXTT9=
EXTT10=
EXTT11=
EXTT12=
EXTT13=
EXTT14=
EXTT15=
EXTT16=
EXTT17=
PLAYORDER=
